<svg width="120" height="120" viewBox="0 0 120 120" fill="none" xmlns="http://www.w3.org/2000/svg">
<rect width="120" height="120" rx="60" fill="white"/>
<path d="M96.1667 40.9104L79.0896 23.8333C78.5559 23.2997 77.8321 23 77.0774 23C76.3227 23 75.5989 23.2997 75.0651 23.8333L23.8339 75.0645C23.3001 75.5981 23.0002 76.322 23 77.0768V94.1538C23 94.9087 23.2999 95.6326 23.8336 96.1664C24.3674 96.7001 25.0913 97 25.8462 97H42.9232C43.678 96.9998 44.4019 96.6999 44.9355 96.1661L96.1667 44.9349C96.7003 44.4011 97 43.6773 97 42.9226C97 42.1679 96.7003 41.4441 96.1667 40.9104ZM44.4482 88.6044C42.7173 90.3352 40.3697 91.3076 37.9219 91.3076V91.3076C32.8246 91.3076 28.6924 87.1754 28.6924 82.0781V82.0781C28.6924 79.6303 29.6648 77.2827 31.3956 75.5518L60.5895 46.358C64.1938 42.7536 70.0377 42.7536 73.642 46.358V46.358C77.2464 49.9623 77.2464 55.8062 73.642 59.4105L44.4482 88.6044ZM87.1614 45.8912C85.5219 47.5307 82.8637 47.5307 81.2243 45.8912L74.1088 38.7758C72.4693 37.1363 72.4693 34.4781 74.1088 32.8386V32.8386C75.7483 31.1991 78.4064 31.1991 80.0459 32.8386L87.1614 39.9541C88.8009 41.5936 88.8009 44.2517 87.1614 45.8912V45.8912Z" fill="black"/>
</svg>
